<?xml version="1.0" encoding="UTF-8"?>
<svg id="katman_1" data-name="katman 1" xmlns="http://www.w3.org/2000/svg" xmlns:xlink="http://www.w3.org/1999/xlink" viewBox="0 0 426.67 205">
  <defs>
    <style>
      .cls-1 {
        fill: none;
      }

      .cls-2 {
        fill: #b88556;
      }

      .cls-3 {
        fill: #fff;
      }

      .cls-4 {
        fill: #1d1d4e;
      }

      .cls-5 {
        clip-path: url(#clippath);
      }
    </style>
    <clipPath id="clippath">
      <rect class="cls-1" x="19.09" y="18.53" width="388.17" height="174.88"/>
    </clipPath>
  </defs>
  <g class="cls-5">
    <g id="Group_1" data-name="Group 1">
      <path id="Path_1" data-name="Path 1" class="cls-3" d="M140.1,79.82c0,30.73-24.07,55.65-53.77,55.65s-53.77-24.91-53.77-55.65,24.07-55.65,53.77-55.65,53.77,24.91,53.77,55.65"/>
      <path id="Path_2" data-name="Path 2" class="cls-2" d="M23.33,79.42c0,8.27,1.46,16.47,4.33,24.22,2.75,7.64,7.19,14.55,13,20.22v-.22c5.71,5.68,12.67,9.95,20.33,12.44,7.91,2.66,16.21,4.01,24.56,4,8.31.02,16.57-1.33,24.45-4,7.58-2.5,14.49-6.67,20.22-12.22,5.81-5.67,10.25-12.59,13-20.22,5.78-15.63,5.78-32.81,0-48.45-5.5-15.41-17.8-27.42-33.34-32.55-15.83-5.48-33.05-5.48-48.89,0-15.53,5.14-27.83,17.14-33.33,32.55-2.87,7.75-4.34,15.96-4.33,24.23M44.68,108.86c0-2.02,1.64-3.66,3.66-3.66,9.92,0,9.94-10.36,9.94-10.36h.12c-.19-.51-.46-.96-.62-1.49-.77-2.48-1.33-5.01-1.67-7.58-.37-2.72-.56-5.46-.56-8.21.29-6.05,1.88-11.97,4.67-17.36,2.88-5.53,7.71-9.79,13.56-11.95,1.36-.56,2.77-.98,4.22-1.25,1.48-.27,2.88-.48,4.22-.62,1.03-.08,2.03-.03,3.04-.02l-.05-.04h37.43c2.02.03,3.64,1.7,3.6,3.73-.03,1.98-1.63,3.57-3.6,3.6-9.51,0-9.91,9.44-9.93,10.21.19.49.45.93.62,1.43.76,2.41,1.32,4.88,1.67,7.38.36,2.51.47,5.05.33,7.58-.12,6.42-1.75,12.73-4.78,18.4-3.03,5.75-7.88,9.8-14.56,12.15-1.89.63-3.82,1.11-5.77,1.46-1.93.27-3.88.36-5.82.27h-36.06c-2.02,0-3.67-1.64-3.66-3.67h0"/>
      <path id="Path_3" data-name="Path 3" class="cls-4" d="M204.21,96.57c-.02-.36-.05-.74-.08-1.12-.11-1.26-.4-2.5-.86-3.67-.44-1.16-1.15-2.2-2.06-3.04-.97-.94-2.15-1.62-3.45-1.98-1.29-.36-2.62-.58-3.96-.66-.46-.04-.92-.06-1.38-.06s-.9-.02-1.32-.06l-11.48.06c-1.35.03-2.67-.33-3.82-1.03-1.13-.76-1.76-2.08-1.64-3.44,0-.41.03-.83.1-1.24-.05-.73-.46-2.34-3.09-2.32-.52-.02-.93-.45-.92-.98.02-.5.42-.9.92-.92h31.06v-7.35l-22.67.06c-4.4,0-7.89.87-10.48,2.61-2.58,1.74-3.91,5-3.99,9.79-.04,4.55,1.18,7.7,3.65,9.44s5.83,2.59,10.07,2.55l10.22.06c1.39,0,2.76.24,4.07.69,1.15.42,1.82,1.53,2.01,3.33.03.26.05.5.06.74,0,0,0,0,.01,0,0,0-.31,2.7,3.09,2.68.52-.02.96.39.98.92s-.39.96-.92.98c-.02,0-.04,0-.06,0h-8.79c-.34.01-.67.03-1.02.03h-21.7v7.35h23.07c4.4,0,7.88-.85,10.44-2.56,2.56-1.7,3.88-4.95,3.96-9.73,0-.38,0-.76-.03-1.12"/>
      <path id="Path_4" data-name="Path 4" class="cls-4" d="M204.21,49.27c-.02-.36-.05-.74-.08-1.12-.11-1.26-.4-2.5-.86-3.67-.44-1.16-1.15-2.2-2.06-3.04-.97-.94-2.15-1.62-3.45-1.98-1.29-.36-2.62-.58-3.96-.66-.46-.04-.92-.06-1.38-.06s-.9-.02-1.32-.06l-11.48.06c-1.35.03-2.67-.33-3.82-1.03-1.13-.76-1.76-2.08-1.64-3.44,0-.41.03-.83.1-1.24-.05-.73-.46-2.34-3.09-2.32-.52-.02-.93-.45-.92-.98.02-.5.42-.9.92-.92h31.05v-7.35l-22.67.06c-4.4,0-7.89.87-10.48,2.61-2.58,1.74-3.91,5-3.99,9.79-.04,4.55,1.18,7.7,3.65,9.44,2.47,1.74,5.83,2.59,10.07,2.55l10.22.06c1.39,0,2.76.24,4.07.69,1.15.42,1.82,1.53,2.01,3.33.03.26.05.5.06.74,0,0,0,0,.01,0,0,0-.31,2.7,3.09,2.67.52-.02.96.39.98.92.02.52-.39.96-.92.98-.02,0-.04,0-.06,0h-8.79c-.34.01-.67.03-1.02.03h-21.7v7.35h23.07c4.4,0,7.88-.85,10.44-2.56,2.56-1.7,3.88-4.95,3.96-9.73,0-.38,0-.76-.03-1.12"/>
      <path id="Path_5" data-name="Path 5" class="cls-4" d="M400.34,108.07c-1.42,0-2.57-1.16-2.57-2.58,0-.03,0-.05,0-.08v-14.33c0-1.52-.22-3.03-.66-4.48-.43-1.44-1.23-2.75-2.32-3.79-1.19-1.24-2.72-2.11-4.39-2.5-1.67-.37-3.37-.57-5.08-.6h-14.39v6.26l11.34.06c7.11,0,7.23,2.75,7.23,5.57l-12.64.06c-1.89,0-9.91.29-9.91,8.67,0,3.03.53,9.64,9.59,9.64h21.23s2.57,0,2.57,0c.52-.02.93-.45.92-.98-.02-.5-.42-.9-.92-.92M392.13,103.89h-3.39l-8.96.05c-3.04,0-4.5-1.1-4.5-3.32,0-2.76,2.83-2.99,4.69-2.99h9.6v1.86c0,1.39,1.12,2.51,2.51,2.51.01,0,.03,0,.04,0,.52,0,.95.42.95.95s-.42.95-.95.95h0"/>
      <path id="Path_6" data-name="Path 6" class="cls-4" d="M264.47,78.58h-2.55s-1.41,0-1.41,0h-.66l-12.45.05c-2.05,0-4.09.22-6.08.66-1.99.46-3.82,1.47-5.28,2.9-1.3,1.25-2.32,2.76-3.01,4.42-.7,1.65-1.15,3.39-1.35,5.16-.04.34-.07.69-.08,1.03-.02.34-.03.69-.03,1.03,0,.27,0,.55.03.83s.03.58.03.89c.19,1.85.65,3.67,1.35,5.4.69,1.73,1.73,3.3,3.07,4.59,1.41,1.5,3.26,2.5,5.28,2.87,2.02.28,4.05.41,6.08.4h6.49c.17,1.29-.24,2.58-1.12,3.53-1.02.85-2.32,1.29-3.64,1.23h-14.29v6.14h15.67c4.1,0,7.03-1.01,8.78-3.04,1.76-2.03,2.64-5.01,2.64-8.95v-24.74c0-1.39,1.12-2.52,2.51-2.52.02,0,.03,0,.05,0,.52-.02.93-.45.92-.98-.02-.5-.42-.9-.92-.92M256.44,86.97c-1.42,0-2.57,1.15-2.57,2.56,0,.03,0,.06,0,.08v12.95l-4.13.06c-3.05,0-9.87-.53-9.87-9.01,0-7.57,4.69-8.55,9.95-8.55.25,0,3.71.04,4.05,0v.02h2.57c.52,0,.95.42.95.95s-.42.95-.95.95"/>
      <path id="Path_7" data-name="Path 7" class="cls-4" d="M215.86,76.28h8.38v-7.52h-11.02c-.52-.02-.96.39-.98.92-.02.52.39.96.92.98.02,0,.04,0,.06,0,1.43.01,2.58,1.19,2.57,2.62,0,.02,0,.04,0,.06h.07v2.95Z"/>
      <path id="Path_8" data-name="Path 8" class="cls-4" d="M226.81,108.07c-1.43-.01-2.58-1.19-2.57-2.62,0-.02,0-.04,0-.06v-25.67h-8.38v30.25h8.38s2.57,0,2.57,0c.52,0,.95-.42.95-.95s-.42-.95-.95-.95"/>
      <path id="Path_9" data-name="Path 9" class="cls-4" d="M329.69,60.77c-1.4.01-2.55-1.11-2.56-2.51,0-.02,0-.03,0-.05V21.46h-10.88c-.52,0-.95.42-.95.95s.42.95.95.95c1.39-.02,2.54,1.09,2.56,2.49,0,.02,0,.04,0,.05v36.77h8.32s2.56,0,2.56,0c.52,0,.95-.42.95-.95s-.42-.95-.95-.95"/>
      <path id="Path_10" data-name="Path 10" class="cls-4" d="M303.29,88.05c-1.42-3.98-4.6-7.08-8.61-8.41-4.09-1.41-8.54-1.41-12.62,0-4.01,1.33-7.19,4.43-8.61,8.41-1.49,4.04-1.49,8.47,0,12.51.71,1.97,1.86,3.76,3.36,5.22,1.48,1.43,3.27,2.51,5.22,3.16,2.03.69,4.17,1.04,6.31,1.03,2.16,0,4.3-.34,6.34-1.03,1.98-.64,3.78-1.75,5.25-3.21v.06c1.5-1.46,2.65-3.25,3.36-5.22,1.49-4.04,1.49-8.47,0-12.51M297.95,102.85h-9.31c-.5.02-1,0-1.5-.07-.51-.09-1-.21-1.49-.38-1.61-.52-2.96-1.64-3.76-3.14-.78-1.46-1.2-3.09-1.23-4.75-.04-.65-.01-1.31.08-1.96.09-.65.23-1.28.43-1.91.04-.13.11-.25.16-.37.04-1.41-1.07-2.59-2.48-2.64-.03,0-.06,0-.09,0-.52,0-.95-.43-.95-.95,0-.52.42-.94.95-.95h9.67-.01c.26.01.52,0,.79.02.35.04.71.09,1.09.16.37.07.74.18,1.09.32,1.51.56,2.76,1.66,3.5,3.08.72,1.39,1.13,2.92,1.21,4.48,0,.71-.05,1.42-.14,2.12-.09.66-.23,1.32-.43,1.96-.04.14-.11.25-.16.39h.03c-.05,1.43,1.08,2.63,2.51,2.67.02,0,.04,0,.06,0,.52,0,.95.42.95.95s-.42.95-.95.95"/>
      <path id="Path_11" data-name="Path 11" class="cls-4" d="M321.3,79.78c-3.78,0-6.05.98-7.42,2.37l-.02-2.41h-4.63c-.52.02-.93.45-.92.98.02.5.42.9.92.92,1.43.01,2.58,1.18,2.57,2.61,0,.02,0,.04,0,.06h0v6.77h0v18.89h10.54c.52,0,.95-.42.95-.95s-.42-.95-.95-.95h0c-1.43-.01-2.58-1.19-2.57-2.62,0-.02,0-.04,0-.06v-16.58s.01,0,.01,0c0-2.69,2.53-2.77,3.96-2.77h5.87v-6.31l-8.32.06Z"/>
      <path id="Path_12" data-name="Path 12" class="cls-4" d="M362.99,108.08c-1.37.03-2.51-1.05-2.55-2.43,0,0,0-.02,0-.03v-1.62h-.73c-4.26,0-6.54-3-6.5-6.03v-7.83c0-1.39-1.12-2.51-2.51-2.51-.01,0-.03,0-.04,0-.52-.02-.93-.45-.92-.98.02-.5.42-.9.92-.92h4.63s6.36,0,6.36,0v-6.03h-8.44v-10.96h-10.55c-.52.02-.93.45-.92.98.02.5.42.9.92.92,1.43.01,2.58,1.19,2.57,2.62,0,.02,0,.04,0,.06v6.39h-3.54v.02h-2.57c-.52,0-.95.42-.95.95s.42.95.95.95c1.42,0,2.57,1.15,2.57,2.57,0,.03,0,.05,0,.08v1.47h3.54v14.81c-.14,2.5.68,4.97,2.29,6.89,1.53,1.68,3.81,2.53,6.83,2.52h8.63c.52,0,.95-.42.95-.95s-.42-.95-.95-.95h0"/>
      <path id="Path_13" data-name="Path 13" class="cls-4" d="M231.04,60.78c-1.37.03-2.51-1.05-2.55-2.43,0,0,0-.02,0-.02v-1.62h-.73c-4.26,0-6.54-3-6.5-6.03v-7.83c0-1.39-1.13-2.51-2.51-2.51-.01,0-.03,0-.04,0-.52.02-.96-.39-.98-.92s.39-.96.92-.98c.02,0,.04,0,.06,0h4.63s6.36,0,6.36,0v-6.03h-8.44v-10.96h-10.54c-.52.02-.93.45-.92.98.02.5.42.9.92.92,1.43.01,2.58,1.19,2.57,2.62,0,.02,0,.04,0,.06v6.39h-3.54v.02h-2.57c-.52,0-.95.42-.95.95s.42.95.95.95c1.42,0,2.57,1.15,2.57,2.57,0,.03,0,.05,0,.08v1.47h3.54v14.81c-.14,2.5.68,4.97,2.29,6.89,1.53,1.68,3.81,2.53,6.83,2.52h8.63c.52,0,.95-.42.95-.95s-.42-.95-.95-.95"/>
      <path id="Path_14" data-name="Path 14" class="cls-4" d="M268.04,60.77c-1.43-.01-2.58-1.19-2.57-2.62,0-.02,0-.04,0-.06v-1.91l-10.07-.08c-1.42.02-2.84-.06-4.25-.23-.73-.12-1.43-.37-2.06-.74-1.27-.72-2.25-1.87-2.76-3.24-.5-1.37-.77-2.82-.8-4.27,0-1.5.24-3,.72-4.42.03-.1.09-.19.12-.28h-.02s1.24-2.67-3.09-2.67c-.52,0-.95-.42-.95-.95,0-.52.42-.95.95-.95h7.26v.02s2.87-.02,2.87-.02h1.93s.76-.02.76-.02h1.03c2.95.03,4.37,1.13,4.37,3.32,0,2.76-2.83,2.99-4.69,2.99h-6.29v6.01l8.24-.05c1.89,0,10.75-.29,10.75-8.66,0-3.02-2.29-9.6-11.28-9.64h0l-7.34-.03c-3.39.19-6.63,1.49-9.21,3.71-1.3,1.26-2.33,2.76-3.04,4.42-.72,1.64-1.16,3.38-1.32,5.16-.04.34-.07.69-.09,1.03s-.03.69-.03,1.03c0,.27,0,.54.03.83s.03.56.03.83c.2,1.81.66,3.58,1.38,5.25.71,1.67,1.74,3.18,3.04,4.45,1.47,1.44,3.31,2.44,5.31,2.9,1.99.44,4.02.66,6.05.66l10.36.11v.02h2.06s0,0,0,0h2.57c.52,0,.95-.42.95-.95s-.42-.95-.95-.95h0"/>
      <path id="Path_15" data-name="Path 15" class="cls-4" d="M305.52,60.77c-1.43-.01-2.58-1.19-2.57-2.62,0-.02,0-.04,0-.06v-1.91l-10.07-.08c-1.42.02-2.84-.06-4.25-.23-.73-.12-1.43-.37-2.06-.74-1.27-.72-2.25-1.87-2.76-3.24-.5-1.37-.77-2.82-.8-4.27,0-1.5.24-3,.72-4.42.03-.1.09-.19.12-.28h-.02s1.24-2.67-3.09-2.67c-.52,0-.95-.42-.95-.95,0-.52.42-.95.95-.95h7.26v.02s2.87-.02,2.87-.02h1.93s.76-.02.76-.02h1.03c2.95.03,4.37,1.13,4.37,3.32,0,2.76-2.83,2.99-4.69,2.99h-6.28v6.01l8.24-.05c1.89,0,10.75-.29,10.75-8.66,0-3.02-2.29-9.6-11.28-9.64h0l-7.33-.03c-3.39.19-6.63,1.49-9.21,3.71-1.3,1.26-2.33,2.76-3.04,4.42-.72,1.64-1.16,3.38-1.32,5.16-.04.34-.07.69-.09,1.03s-.03.69-.03,1.03c0,.27,0,.54.03.83s.03.56.03.83c.2,1.81.66,3.58,1.38,5.25.7,1.67,1.74,3.18,3.04,4.45,1.47,1.44,3.31,2.44,5.31,2.9,1.99.44,4.02.66,6.05.66l10.36.11v.02h2.06s0,0,0,0h2.57c.52,0,.95-.42.95-.95s-.42-.95-.95-.95h0"/>
      <path id="Path_16" data-name="Path 16" class="cls-4" d="M169.78,134.6l-3.04-7.21c-.03-.08-.05-.16-.05-.25,0-.31.24-.57.55-.57,0,0,.01,0,.02,0,.24,0,.46.14.54.37l2.52,6.16,2.52-6.16c.07-.23.29-.38.54-.37.31,0,.57.24.57.55,0,0,0,0,0,.01,0,.09-.02.17-.05.25l-3.04,7.21c-.12.3-.46.44-.76.31-.14-.06-.25-.17-.31-.31"/>
      <path id="Path_17" data-name="Path 17" class="cls-4" d="M182.1,126.45c1.78-.11,3.31,1.25,3.41,3.02,0,.15,0,.3,0,.46,0,.52,0,1.14-.71,1.14h-5.21c-.17,1.43.86,2.73,2.29,2.89.13.02.27.02.41.02.78,0,1.54-.26,2.14-.77.09-.07.21-.11.32-.11.29,0,.52.23.52.52,0,.16-.08.31-.2.41-.77.68-1.76,1.04-2.79,1-2.37,0-3.86-1.3-3.86-4.3,0-2.75,1.36-4.28,3.68-4.28M182.1,127.49c-1.34-.05-2.47.99-2.52,2.33,0,.09,0,.17,0,.26h4.8c0-1.29-.45-2.59-2.29-2.59"/>
      <path id="Path_18" data-name="Path 18" class="cls-4" d="M200.15,134.34c0,.34-.27.61-.61.61s-.61-.27-.61-.61h0v-10.94c0-.33.26-.6.59-.61,0,0,.01,0,.02,0h3.55c1.84-.04,3.37,1.41,3.41,3.25,0,.05,0,.1,0,.16.07,1.81-1.34,3.34-3.16,3.41-.01,0-.03,0-.04,0l3.27,4.36c.08.11.13.24.13.38,0,.34-.28.61-.61.61-.21,0-.4-.11-.51-.29l-3.62-5.05h-1.8v4.73ZM200.15,128.5h2.98c1.27-.09,2.23-1.2,2.13-2.47-.09-1.16-1.02-2.08-2.19-2.14h-2.93v4.61Z"/>
      <path id="Path_19" data-name="Path 19" class="cls-4" d="M215.13,126.45c1.78-.11,3.31,1.25,3.41,3.02,0,.15,0,.3,0,.46,0,.52,0,1.14-.71,1.14h-5.21c-.17,1.43.86,2.73,2.29,2.89.13.02.27.02.41.02.78,0,1.54-.26,2.14-.77.09-.07.21-.11.32-.11.29,0,.52.23.52.52,0,.16-.08.31-.2.41-.76.68-1.76,1.04-2.79,1-2.37,0-3.86-1.3-3.86-4.3,0-2.75,1.36-4.28,3.68-4.28M215.13,127.49c-1.34-.05-2.47.99-2.52,2.33,0,.09,0,.17,0,.26h4.8c0-1.29-.45-2.59-2.29-2.59"/>
      <path id="Path_20" data-name="Path 20" class="cls-4" d="M224.78,128.43c-.11.15-.28.24-.46.25-.29,0-.52-.23-.52-.52,0-.11.03-.21.09-.3.67-.96,1.8-1.5,2.96-1.41,1.58-.19,3.01.95,3.2,2.53.02.17.02.34.01.51v4.91c0,.31-.25.55-.55.55s-.55-.25-.55-.55h0v-.64c-.56.86-1.53,1.35-2.55,1.29-1.89,0-3.09-.91-3.09-2.55s1.2-2.52,3.12-2.52h2.52v-.48c.05-1.04-.76-1.93-1.8-1.97-.1,0-.21,0-.31.01-.8-.05-1.57.29-2.07.91M228.96,131.72v-.75h-2.52c-1.16,0-1.96.48-1.96,1.52,0,.93.64,1.52,2.04,1.52,1.25.1,2.34-.84,2.44-2.09,0-.06,0-.13,0-.19"/>
      <path id="Path_21" data-name="Path 21" class="cls-4" d="M236.72,128.63c0,1.88,4.7,1.18,4.7,4.03,0,1.62-1.34,2.36-3.04,2.36-1.16.03-2.27-.44-3.05-1.29-.08-.09-.13-.21-.13-.34,0-.29.23-.52.52-.52.15,0,.29.07.39.18.6.6,1.42.91,2.27.88,1.02,0,1.89-.34,1.89-1.27,0-1.84-4.7-1.11-4.7-4.03,0-1.48,1.21-2.16,2.73-2.16,1.04-.07,2.04.35,2.71,1.14.08.1.12.22.12.34,0,.29-.23.52-.52.52-.14,0-.28-.06-.38-.16-.51-.52-1.22-.79-1.95-.75-.8,0-1.59.25-1.59,1.07"/>
      <path id="Path_22" data-name="Path 22" class="cls-4" d="M247.88,127.13v4.66c0,1.16.38,2.16,2.18,2.16s2.18-1,2.18-2.16v-4.66c0-.32.27-.57.58-.57,0,0,0,0,0,0,.31,0,.56.26.55.56,0,0,0,0,0,0v4.66c0,1.7-.55,3.25-3.32,3.25s-3.32-1.55-3.32-3.25v-4.66c0-.31.24-.56.55-.57,0,0,.01,0,.02,0,.31,0,.57.25.57.57M248.13,124.61c0-.44.21-.68.64-.68s.64.23.64.68-.21.66-.64.66c-.31.04-.6-.18-.65-.49,0-.06,0-.11,0-.17M250.93,124.61c0-.44.21-.68.64-.68s.64.23.64.68c.05.31-.16.61-.48.66-.06,0-.11,0-.17,0-.43,0-.64-.21-.64-.66"/>
      <path id="Path_23" data-name="Path 23" class="cls-4" d="M260.23,127.91c.46-.93,1.44-1.5,2.48-1.43.31,0,.55.25.55.55s-.25.55-.55.55c-1.64,0-2.48,1.14-2.48,2.78v4c-.01.32-.28.56-.6.55-.3-.01-.54-.25-.55-.55v-7.25c-.01-.32.23-.58.55-.6.32-.01.58.23.6.55,0,.02,0,.03,0,.05v.79Z"/>
      <path id="Path_24" data-name="Path 24" class="cls-4" d="M268.91,128.43c-.11.15-.28.24-.46.25-.29,0-.52-.23-.52-.52,0-.11.03-.21.09-.3.67-.96,1.8-1.5,2.96-1.41,1.58-.19,3.01.95,3.2,2.53.02.17.02.34.01.51v4.91c0,.31-.25.55-.55.55s-.55-.25-.55-.55h0v-.64c-.56.86-1.53,1.35-2.55,1.29-1.89,0-3.09-.91-3.09-2.55s1.2-2.52,3.12-2.52h2.52v-.48c.05-1.04-.76-1.93-1.8-1.97-.1,0-.21,0-.31.01-.8-.05-1.57.29-2.07.91M273.09,131.72v-.75h-2.52c-1.16,0-1.96.48-1.96,1.52,0,.93.64,1.52,2.04,1.52,1.25.1,2.34-.84,2.44-2.09,0-.06,0-.13,0-.19"/>
      <path id="Path_25" data-name="Path 25" class="cls-4" d="M286.71,129.61v4.77c-.01.32-.28.56-.6.55-.3-.01-.54-.25-.55-.55v-4.54c0-1.41-.41-2.38-2.14-2.38s-2.38,1.07-2.38,2.5v4.41c-.01.32-.28.56-.6.55-.3-.01-.54-.25-.55-.55v-7.25c.01-.32.28-.56.6-.55.3.01.54.25.55.55v.57c.5-.83,1.41-1.31,2.38-1.25,2.75,0,3.28,1.64,3.28,3.16"/>
      <path id="Path_26" data-name="Path 26" class="cls-4" d="M293.37,128.63c0,1.88,4.7,1.18,4.7,4.03,0,1.62-1.34,2.36-3.04,2.36-1.16.03-2.27-.44-3.05-1.29-.08-.09-.13-.21-.13-.33,0-.29.23-.52.52-.52h0c.15,0,.29.07.39.18.6.6,1.42.91,2.27.88,1.02,0,1.89-.34,1.89-1.27,0-1.84-4.7-1.11-4.7-4.03,0-1.48,1.22-2.16,2.73-2.16,1.04-.07,2.04.35,2.71,1.14.08.1.12.22.12.34,0,.28-.23.52-.52.52h0c-.14,0-.28-.06-.38-.16-.51-.52-1.22-.79-1.95-.75-.8,0-1.59.25-1.59,1.07"/>
      <path id="Path_27" data-name="Path 27" class="cls-4" d="M312.25,134.8c-.33,0-.61-.27-.61-.61v-10.8c0-.33.27-.6.61-.61h3.03c2.52,0,3.64,1.25,3.64,3.18.03,1.11-.68,2.1-1.73,2.43,1.4.28,2.38,1.56,2.29,2.98,0,2.07-1.3,3.43-3.66,3.43h-3.57ZM312.86,128.04h2.41c1.59,0,2.43-.82,2.43-2.07s-.77-2.07-2.43-2.07h-2.41v4.14ZM312.86,133.7h2.95c1.18.17,2.27-.65,2.43-1.83.02-.16.03-.32.01-.49.07-1.2-.84-2.24-2.04-2.31-.14,0-.27,0-.4.01h-2.95v4.62Z"/>
      <path id="Path_28" data-name="Path 28" class="cls-4" d="M326.11,127.91c.46-.93,1.44-1.5,2.48-1.43.31,0,.55.25.55.55s-.25.55-.55.55c-1.64,0-2.48,1.14-2.48,2.78v4c-.01.32-.28.56-.6.55-.3-.01-.54-.25-.55-.55v-7.25c-.01-.32.23-.58.55-.6.32-.01.58.23.6.55,0,.02,0,.03,0,.05v.79Z"/>
      <path id="Path_29" data-name="Path 29" class="cls-4" d="M340.93,130.73c0,2.93-1.43,4.3-3.75,4.3s-3.75-1.38-3.75-4.3,1.45-4.29,3.75-4.29,3.75,1.36,3.75,4.29M339.76,130.73c0-2.25-.95-3.25-2.59-3.25s-2.59,1-2.59,3.25.95,3.27,2.59,3.27,2.59-.98,2.59-3.27"/>
      <path id="Path_30" data-name="Path 30" class="cls-4" d="M351.58,134.68l-3.16-4.05-1.09.88v2.88c-.01.32-.28.56-.6.55-.3-.01-.54-.25-.55-.55v-11.71c.01-.32.28-.56.6-.55.3.01.54.25.55.55v7.48l4.21-3.45c.24-.21.61-.18.82.06.09.1.14.23.14.37,0,.18-.09.35-.23.46l-2.93,2.34,3.18,4.09c.09.1.13.23.12.36,0,.31-.25.57-.56.57,0,0,0,0-.01,0-.2,0-.39-.1-.5-.27"/>
      <path id="Path_31" data-name="Path 31" class="cls-4" d="M360.99,126.45c1.78-.11,3.31,1.25,3.41,3.02,0,.15,0,.3,0,.46,0,.52,0,1.14-.71,1.14h-5.21c-.17,1.43.86,2.73,2.29,2.89.13.02.27.02.4.02.78,0,1.54-.26,2.14-.77.09-.07.21-.11.32-.11.29,0,.52.23.52.52,0,.16-.08.31-.2.41-.77.68-1.76,1.04-2.79,1-2.37,0-3.86-1.3-3.86-4.3,0-2.75,1.36-4.28,3.68-4.28M360.99,127.49c-1.34-.05-2.47.99-2.52,2.33,0,.09,0,.18,0,.26h4.8c0-1.29-.45-2.59-2.29-2.59"/>
      <path id="Path_32" data-name="Path 32" class="cls-4" d="M370.88,127.91c.46-.93,1.44-1.5,2.48-1.43.31,0,.55.25.55.55s-.25.55-.55.55c-1.64,0-2.48,1.14-2.48,2.78v4c-.01.32-.28.56-.6.55-.3-.01-.54-.25-.55-.55v-7.25c-.01-.32.23-.58.55-.6.32-.01.58.23.6.55,0,.02,0,.03,0,.05v.79Z"/>
      <path id="Path_33" data-name="Path 33" class="cls-4" d="M379.87,122.67v10.19c0,.71.23,1.02.71,1.02.3,0,.54.24.54.54s-.24.54-.54.54c-1.2,0-1.86-.72-1.86-2.09v-10.19c0-.31.26-.56.57-.57.31,0,.57.26.57.57"/>
      <path id="Path_34" data-name="Path 34" class="cls-4" d="M386.09,124.2c0-.52.25-.71.68-.71s.68.2.68.71c.01.37-.28.69-.65.7s-.69-.28-.7-.65c0-.02,0-.03,0-.05M387.34,134.38c-.01.32-.28.56-.6.55-.3-.01-.54-.25-.55-.55v-7.25c.01-.32.28-.56.6-.55.3.01.54.25.55.55v7.25Z"/>
      <path id="Path_35" data-name="Path 35" class="cls-4" d="M398.8,134.97v-1.02c-.59.72-1.48,1.12-2.41,1.09-2.32,0-3.7-1.36-3.7-4.29s1.37-4.3,3.7-4.3c1.81-.16,3.41,1.18,3.57,2.99.02.18.02.37,0,.55v4.98c0,2.43-1.66,3.43-3.66,3.43-1.13.06-2.22-.39-2.98-1.23-.07-.09-.11-.21-.11-.32,0-.31.25-.56.56-.55.16,0,.32.07.42.2.54.58,1.31.88,2.11.84,1.21.16,2.32-.69,2.49-1.9.02-.15.03-.31.01-.46M398.8,129.99c.13-1.25-.78-2.36-2.03-2.49-.13-.01-.26-.02-.38,0-1.64,0-2.55,1.03-2.55,3.27s.91,3.25,2.55,3.25c1-.02,1.92-.57,2.41-1.45v-2.57ZM394.37,123.56c0-.24.19-.43.43-.43.24,0,.43.19.43.43h0c0,.66.39.99,1.16.99s1.16-.32,1.16-.98c0-.24.19-.43.43-.43.24,0,.43.19.43.43h0c-.13,1.12-1.13,1.92-2.25,1.79-.94-.11-1.68-.85-1.79-1.79"/>
      <path id="Path_36" data-name="Path 36" class="cls-4" d="M405.51,124.2c0-.52.25-.71.68-.71s.68.2.68.71c.01.37-.28.69-.65.7s-.69-.28-.7-.65c0-.02,0-.03,0-.05M406.76,134.38c-.01.32-.28.56-.6.55-.3-.01-.54-.25-.55-.55v-7.25c.01-.32.28-.56.6-.55.3.01.54.25.55.55v7.25Z"/>
      <path id="Path_37" data-name="Path 37" class="cls-4" d="M21.45,168.01h-2.36l2.24-8.44h1.75l-1.63,8.44ZM26.51,168.01h-2.36l2.25-8.44h1.75l-1.63,8.44Z"/>
      <path id="Path_38" data-name="Path 38" class="cls-4" d="M31.66,179.77l1.59-.46c1.23,3.51,4.58,5.83,8.3,5.73,4.13,0,6.77-2.47,6.77-4.95,0-2.05-1.17-3.29-4.75-4.43l-5.63-1.82c-3.03-.98-4.98-2.41-4.98-5.11,0-3.03,3.06-5.73,7.32-5.73,4.69,0,7.68,2.38,9.05,5.37l-1.56.49c-1.21-2.6-3.81-4.33-7.55-4.33-3.32,0-5.63,1.99-5.63,4.2,0,1.79,1.14,2.8,4.23,3.78l5.47,1.76c3.61,1.14,5.66,2.54,5.66,5.76,0,3.51-3.45,6.54-8.46,6.54-4.41.11-8.38-2.64-9.83-6.8"/>
      <path id="Path_39" data-name="Path 39" class="cls-4" d="M54.12,165.36c0-.72.58-1.3,1.3-1.3.72,0,1.3.58,1.3,1.3,0,.72-.58,1.3-1.3,1.3-.72,0-1.3-.58-1.3-1.3M54.63,170.07h1.59v16.11h-1.59v-16.11Z"/>
      <path id="Path_40" data-name="Path 40" class="cls-4" d="M77.32,170.07v15.59c.12,4.16-3.15,7.63-7.31,7.75-.18,0-.36,0-.54,0-3.13.15-6.07-1.49-7.58-4.23l1.47-.55c1.24,2.17,3.62,3.45,6.12,3.29,3.31.14,6.11-2.43,6.25-5.74,0-.17,0-.34,0-.51v-3.19c-1.54,2.32-4.18,3.66-6.96,3.51-4.5.12-8.25-3.43-8.37-7.93-.12-4.5,3.43-8.25,7.93-8.37.15,0,.29,0,.44,0,2.77-.14,5.41,1.18,6.96,3.48v-3.1h1.59ZM75.76,177.85c-.02-3.71-3.05-6.7-6.76-6.67-.02,0-.05,0-.07,0-3.68-.08-6.73,2.85-6.81,6.53-.08,3.68,2.85,6.73,6.53,6.81.09,0,.19,0,.28,0,3.71.07,6.77-2.89,6.83-6.6,0-.03,0-.05,0-.08"/>
      <path id="Path_41" data-name="Path 41" class="cls-4" d="M81.45,178.11c0-4.67,3.79-8.46,8.46-8.46s8.46,3.79,8.46,8.46c0,4.66-3.77,8.44-8.43,8.46-4.56.13-8.37-3.47-8.49-8.03,0-.14,0-.29,0-.43M96.78,178.15c-.04-3.79-3.14-6.84-6.93-6.8-3.79.04-6.84,3.14-6.8,6.93.04,3.78,3.12,6.82,6.9,6.8,3.76.02,6.82-3.01,6.84-6.76,0-.06,0-.11,0-.17"/>
      <path id="Path_42" data-name="Path 42" class="cls-4" d="M110.13,169.88v1.5c-3.48-.43-6.02,1.56-6.02,7v7.81h-1.6v-16.11h1.6v2.99c.98-2.37,3.51-3.71,6.02-3.19"/>
      <path id="Path_43" data-name="Path 43" class="cls-4" d="M117.42,171.57v10.02c0,2.05.98,3.26,2.96,3.26.87,0,1.74-.2,2.51-.62l.49,1.5c-.99.45-2.07.68-3.16.68-2.99,0-4.39-1.92-4.39-4.82v-10.03h-3.42v-1.5h3.42v-5.72h1.59v5.73h5.96v1.5h-5.96Z"/>
      <path id="Path_44" data-name="Path 44" class="cls-4" d="M125.23,178.11c-.18-4.48,3.31-8.25,7.78-8.42.15,0,.3,0,.45,0,2.84-.11,5.51,1.34,6.97,3.78v-3.38h1.6v16.11h-1.6v-3.42c-1.43,2.47-4.12,3.93-6.97,3.81-4.49.06-8.18-3.54-8.24-8.03,0-.14,0-.29,0-.43M140.46,178.15c.06-3.79-2.97-6.91-6.76-6.96-.02,0-.05,0-.07,0-3.85.08-6.9,3.26-6.82,7.11.08,3.73,3.09,6.74,6.82,6.82,3.79-.02,6.85-3.1,6.83-6.89,0-.02,0-.05,0-.07"/>
      <path id="Path_45" data-name="Path 45" class="cls-4" d="M146.16,178.08c-.14-4.5,3.39-8.26,7.88-8.4.15,0,.3,0,.45,0,3.17-.14,6.08,1.74,7.26,4.69l-1.5.46c-1-2.28-3.28-3.72-5.76-3.65-3.84.09-6.88,3.28-6.78,7.12.09,3.71,3.07,6.69,6.78,6.78,2.47.12,4.76-1.29,5.76-3.55l1.5.39c-.65,2.18-3.25,4.65-7.26,4.65-4.53.07-8.26-3.54-8.34-8.07,0-.14,0-.28,0-.42"/>
      <rect id="Rectangle_1" data-name="Rectangle 1" class="cls-4" x="165.98" y="170.07" width="1.63" height="16.11"/>
      <rect id="Rectangle_2" data-name="Rectangle 2" class="cls-4" x="172.82" y="162.43" width="1.59" height="23.76"/>
      <rect id="Rectangle_3" data-name="Rectangle 3" class="cls-4" x="179.62" y="170.07" width="1.63" height="16.11"/>
      <path id="Path_46" data-name="Path 46" class="cls-4" d="M202.17,170.07v15.59c.12,4.16-3.15,7.63-7.31,7.75-.18,0-.36,0-.54,0-3.13.15-6.07-1.49-7.59-4.23l1.47-.55c1.24,2.17,3.62,3.45,6.12,3.29,3.31.14,6.11-2.43,6.25-5.74,0-.17,0-.34,0-.51v-3.19c-1.54,2.32-4.18,3.66-6.96,3.51-4.5-.15-8.03-3.93-7.88-8.43.15-4.5,3.93-8.03,8.43-7.88,2.57.09,4.94,1.38,6.41,3.48v-3.09h1.59ZM200.61,177.85c-.02-3.71-3.05-6.7-6.76-6.67-.02,0-.05,0-.07,0-3.68-.08-6.73,2.85-6.81,6.53-.08,3.68,2.85,6.73,6.53,6.81.09,0,.19,0,.28,0,3.71.07,6.77-2.89,6.83-6.6,0-.02,0-.05,0-.07M189.35,163.66h1.5c-.09,1.48,1.04,2.76,2.53,2.85.17.01.34,0,.5-.02,2.11,0,3.03-1.24,3.03-2.83h1.5c0,2.34-1.53,4.16-4.52,4.16s-4.52-1.82-4.52-4.16"/>
      <rect id="Rectangle_4" data-name="Rectangle 4" class="cls-4" x="207.38" y="170.07" width="1.63" height="16.11"/>
      <path id="Path_47" data-name="Path 47" class="cls-4" d="M228.73,176.68v9.5h-1.59v-9.34c0-3.51-1.82-5.63-5.11-5.63-3.68,0-6.21,2.76-6.21,6.8v8.17h-1.59v-16.11h1.6v3.32c1.23-2.37,3.71-3.81,6.38-3.71,3.93,0,6.54,2.54,6.54,7"/>
      <path id="Path_48" data-name="Path 48" class="cls-4" d="M256.46,170.07l-10.06,22.94h-1.72l3.12-7.13-7.52-15.82h1.76l6.61,13.99,6.09-13.99h1.72Z"/>
      <path id="Path_49" data-name="Path 49" class="cls-4" d="M257.9,178.11c0-4.75,3.26-8.43,8.1-8.43s7.94,3.55,7.94,8.01c0,.39,0,.59-.03.98h-14.38c.2,3.74,3.4,6.6,7.13,6.4,2.38-.13,4.51-1.5,5.62-3.6l1.53.46c-1.34,2.94-4.32,4.78-7.55,4.65-4.82,0-8.37-3.25-8.37-8.46M272.35,177.2c-.26-3.55-2.51-6.02-6.35-6.02-3.43-.05-6.29,2.62-6.48,6.05l12.82-.03Z"/>
      <path id="Path_50" data-name="Path 50" class="cls-4" d="M292.59,176.68v9.5h-1.59v-9.34c0-3.51-1.82-5.63-5.11-5.63-3.68,0-6.22,2.76-6.22,6.8v8.17h-1.59v-16.11h1.59v3.32c1.23-2.37,3.71-3.81,6.38-3.71,3.94,0,6.54,2.54,6.54,7"/>
      <path id="Path_51" data-name="Path 51" class="cls-4" d="M297.32,165.36c0-.72.58-1.3,1.3-1.3s1.3.58,1.3,1.3-.58,1.3-1.3,1.3-1.3-.58-1.3-1.3M297.83,170.07h1.59v16.11h-1.59v-16.11Z"/>
      <path id="Path_52" data-name="Path 52" class="cls-4" d="M336.5,178c-.01-.22-.03-.45-.05-.68-.07-.76-.24-1.51-.52-2.23-.27-.7-.7-1.34-1.25-1.85-.59-.57-1.3-.98-2.09-1.2-.78-.22-1.59-.35-2.4-.4-.28-.02-.56-.04-.84-.04s-.55,0-.8-.03l-6.96.03c-.82.02-1.62-.2-2.31-.62-.69-.46-1.07-1.26-.99-2.09,0-.25.02-.5.06-.75-.03-.44-.28-1.42-1.87-1.4-.32.01-.58-.23-.6-.55-.01-.32.23-.58.55-.6.02,0,.03,0,.05,0h18.83v-4.46l-13.74.03c-2.23-.12-4.44.44-6.35,1.58-1.57,1.05-2.37,3.03-2.42,5.93-.02,2.76.71,4.67,2.21,5.72,1.82,1.14,3.96,1.69,6.11,1.55l6.2.03c.84,0,1.67.15,2.47.42.7.26,1.1.93,1.22,2.02.02.16.03.3.04.45h.01s-.19,1.64,1.87,1.62c.32,0,.57.26.57.57s-.26.57-.57.57h-5.33c-.2,0-.41.02-.62.01h-13.16v4.45h13.99c2.22.12,4.42-.42,6.33-1.55,1.55-1.03,2.35-3,2.4-5.9,0-.23,0-.46-.02-.68"/>
      <path id="Path_53" data-name="Path 53" class="cls-4" d="M358.47,165.7h5.08v-4.56h-6.68c-.32.01-.56.28-.55.6.01.3.25.54.55.55.87,0,1.57.72,1.56,1.59,0,.01,0,.02,0,.04h.05v1.79Z"/>
      <path id="Path_54" data-name="Path 54" class="cls-4" d="M365.1,184.98c-.87,0-1.57-.72-1.56-1.59,0-.01,0-.02,0-.03v-15.57h-5.08v18.34h6.64c.32-.01.56-.28.55-.6-.01-.3-.25-.54-.55-.55"/>
      <path id="Path_55" data-name="Path 55" class="cls-4" d="M383.3,165.7h5.08v-4.56h-6.68c-.32-.01-.59.23-.6.55s.23.59.55.6c.02,0,.03,0,.05,0,.87,0,1.56.72,1.55,1.59,0,.01,0,.02,0,.04h.05v1.79Z"/>
      <path id="Path_56" data-name="Path 56" class="cls-4" d="M389.93,184.98c-.87,0-1.57-.72-1.56-1.59,0-.01,0-.02,0-.03v-15.57h-5.08v18.34h6.64c.32-.01.56-.28.55-.6-.01-.3-.25-.54-.55-.55"/>
      <path id="Path_57" data-name="Path 57" class="cls-4" d="M399.19,181.77h-5.08v4.56h6.68c.32-.01.56-.28.55-.6-.01-.3-.25-.54-.55-.55-.87,0-1.57-.72-1.56-1.59,0-.01,0-.02,0-.04h-.05v-1.79Z"/>
      <path id="Path_58" data-name="Path 58" class="cls-4" d="M377.44,184.95c-.85,0-1.54-.67-1.55-1.52,0-.01,0-.02,0-.03v-22.29h-6.6c-.32-.01-.59.23-.6.55s.23.59.55.6c.02,0,.03,0,.05,0,.85-.01,1.54.67,1.55,1.51,0,0,0,.02,0,.03v22.3h6.6c.32-.01.56-.28.55-.6-.01-.3-.25-.54-.55-.55"/>
      <path id="Path_59" data-name="Path 59" class="cls-4" d="M354.08,184.98c-.83.02-1.53-.64-1.55-1.47,0,0,0-.01,0-.02v-.98h-.44c-2.01.16-3.78-1.35-3.93-3.36,0-.1-.01-.19-.01-.29v-4.75c0-.84-.68-1.52-1.52-1.52,0,0-.02,0-.03,0-.32.01-.59-.23-.6-.55s.23-.59.55-.6c.02,0,.03,0,.05,0h2.81s3.86,0,3.86,0v-3.66h-5.12v-6.65h-6.39c-.32-.01-.58.23-.6.55-.01.32.23.58.55.6.02,0,.03,0,.05,0,.87,0,1.56.72,1.56,1.59,0,.01,0,.02,0,.04v3.88h-2.15s-1.55,0-1.55,0c-.32,0-.57.26-.57.57s.26.57.57.57h0c.86,0,1.56.7,1.55,1.56,0,.02,0,.03,0,.05v.89h2.15v8.98c-.09,1.52.41,3.01,1.39,4.18,1.09,1.09,2.61,1.65,4.14,1.53h5.23c.32,0,.57-.26.57-.57s-.26-.57-.57-.57"/>
      <path id="Path_60" data-name="Path 60" class="cls-4" d="M400.57,168.05h-2.36l2.24-8.44h1.75l-1.63,8.44ZM405.62,168.05h-2.36l2.24-8.44h1.75l-1.63,8.44Z"/>
    </g>
  </g>
</svg>
